<svg fill="none" height="32" viewBox="0 0 32 32" width="32" xmlns="http://www.w3.org/2000/svg" xmlns:xlink="http://www.w3.org/1999/xlink"><linearGradient id="a" gradientUnits="userSpaceOnUse" x1="16" x2="16" y1="23.204" y2="8.79599"><stop offset="0" stop-color="#0052cc"/><stop offset="1" stop-color="#2684ff"/></linearGradient><path d="m0 0h32v32h-32z" fill="#ebecf0"/><path clip-rule="evenodd" d="m21.488 8.79999h-10.976c-.4537.00105-.88852.18176-1.20935.5026-.32083.32083-.50154.75571-.5026 1.20941v10.976c.00106.4537.18177.8886.5026 1.2094s.75565.5015 1.20935.5026h10.976c.4538-.0011.8886-.1818 1.2094-.5026.3209-.3208.5016-.7557.5026-1.2094v-10.976c-.001-.4537-.1817-.88858-.5026-1.20941-.3208-.32084-.7556-.50155-1.2094-.5026zm-6.484 10.37201c0 .1517-.0602.2972-.1675.4045-.1073.1072-.2527.1675-.4045.1675h-2.4c-.1517 0-.2971-.0603-.4044-.1675-.1073-.1073-.1676-.2528-.1676-.4045v-7.144c0-.1517.0603-.2972.1676-.4045.1073-.1072.2527-.1675.4044-.1675h2.4c.1518 0 .2972.0603.4045.1675.1073.1073.1675.2528.1675.4045zm5.54-3.28c.0001.0749-.0148.1491-.0436.2183s-.071.1319-.1241.1847c-.0532.0528-.1163.0946-.1857.1229-.0693.0283-.1436.0426-.2186.0421h-2.4c-.0749.0005-.1492-.0138-.2185-.0421-.0694-.0283-.1325-.0701-.1857-.1229-.0531-.0528-.0953-.1155-.1241-.1847s-.0437-.1434-.0437-.2183v-3.864c0-.1517.0603-.2972.1676-.4045.1073-.1072.2527-.1675.4044-.1675h2.4c.1518 0 .2972.0603.4045.1675.1073.1073.1675.2528.1675.4045z" fill="url(#a)" fill-rule="evenodd"/></svg>