<svg fill="none" height="33" viewBox="0 0 33 33" width="33" xmlns="http://www.w3.org/2000/svg" xmlns:xlink="http://www.w3.org/1999/xlink"><linearGradient id="a" gradientUnits="userSpaceOnUse" x1="16.0052" x2="16.0052" y1="23.704" y2="9.296"><stop offset="0" stop-color="#fff" stop-opacity=".4"/><stop offset=".11" stop-color="#fff" stop-opacity=".54"/><stop offset=".25" stop-color="#fff" stop-opacity=".71"/><stop offset=".39" stop-color="#fff" stop-opacity=".83"/><stop offset=".52" stop-color="#fff" stop-opacity=".93"/><stop offset=".64" stop-color="#fff" stop-opacity=".98"/><stop offset=".75" stop-color="#fff"/></linearGradient><clipPath id="b"><path d="m.005249.5h32v32h-32z"/></clipPath><g clip-path="url(#b)"><path d="m.00524902.5h31.99995098v32h-31.99995098z" fill="#0052cc"/><path clip-rule="evenodd" d="m21.4932 9.3h-10.976c-.4537.00106-.88852.18177-1.20935.5026-.32084.3208-.50155.7557-.5026 1.2094v10.976c.00105.4537.18176.8886.5026 1.2094.32083.3208.75565.5015 1.20935.5026h10.976c.4538-.0011.8886-.1818 1.2094-.5026.3209-.3208.5016-.7557.5026-1.2094v-10.976c-.001-.4537-.1817-.8886-.5026-1.2094-.3208-.32083-.7556-.50154-1.2094-.5026zm-6.484 10.372c0 .1517-.0602.2972-.1675.4045-.1073.1072-.2527.1675-.4045.1675h-2.4c-.1517 0-.2971-.0603-.4044-.1675-.1073-.1073-.1676-.2528-.1676-.4045v-7.144c0-.1517.0603-.2972.1676-.4045.1073-.1072.2527-.1675.4044-.1675h2.4c.1518 0 .2972.0603.4045.1675.1073.1073.1675.2528.1675.4045zm5.54-3.28c.0001.0749-.0148.1491-.0436.2183s-.071.132-.1241.1848c-.0532.0528-.1163.0945-.1857.1228-.0693.0283-.1436.0426-.2186.0421h-2.4c-.0749.0005-.1492-.0138-.2185-.0421-.0694-.0283-.1325-.07-.1857-.1228-.0531-.0528-.0953-.1156-.1241-.1848s-.0437-.1434-.0437-.2183v-3.864c0-.1517.0603-.2972.1676-.4045.1073-.1072.2527-.1675.4044-.1675h2.4c.1518 0 .2972.0603.4045.1675.1073.1073.1675.2528.1675.4045z" fill="url(#a)" fill-rule="evenodd"/></g></svg>