<svg fill="none" height="33" viewBox="0 0 157 33" width="157" xmlns="http://www.w3.org/2000/svg" xmlns:xlink="http://www.w3.org/1999/xlink"><linearGradient id="a" gradientUnits="userSpaceOnUse" x1="15.7478" x2="15.7478" y1="43.2888" y2="11.8185"><stop offset="0" stop-color="#42526e"/><stop offset="1" stop-color="#7a869a"/></linearGradient><path clip-rule="evenodd" d="m27.7428.307739h-24.00508c-.99177.001337-1.94245.396251-2.64326 1.098011-.700816.70175-1.09444729 1.65297-1.09444639 2.64474v23.97481c-.00132641.4919.09433649.9793.28151839 1.4342.187181.4549.462209.8685.809348 1.217.34715.3486.7596.6253 1.21377.8143.45416.189.94114.2866 1.43307.2873h24.00508c.4919-.0007.9789-.0983 1.433-.2873.4542-.189.8667-.4657 1.2138-.8143.3471-.3485.6222-.7621.8094-1.217.1871-.4549.2828-.9423.2815-1.4342v-23.97481c0-.99177-.3937-1.94299-1.0945-2.64474-.7008-.70176-1.6515-1.096674-2.6432-1.098011zm-14.1741 22.673361c-.0006.1638-.0337.3259-.0973.4769-.0636.1509-.1565.2878-.2732.4027-.1168.1149-.2551.2055-.4071.2666-.152.0612-.3146.0916-.4783.0896h-5.24595c-.32869.0001-.64408-.1298-.87744-.3613s-.3658-.5458-.36846-.8745v-15.63679c.00133-.32956.13318-.64517.36669-.87773s.54965-.36313.87921-.36313h5.24595c.1642-.002.3272.02862.4795.09008s.2908.15254.4077.26797c.1168.11542.2096.25289.2729.40443s.0959.31415.0958.47838zm12.106-7.1677c-.0013.1636-.0349.3254-.0987.476-.0639.1507-.1567.2873-.2734.4021-.1166.1147-.2547.2054-.4064.2668-.1516.0613-.3139.0923-.4775.0909h-5.251c-.3291 0-.6447-.1307-.8774-.3634s-.3634-.5483-.3634-.8774v-8.46409c0-.3291.1307-.64471.3634-.87742s.5483-.36344.8774-.36344h5.251c.164-.00133.3267.02975.4787.09145s.2903.15281.407.2681.2095.2525.273.40373c.0636.15124.0966.31354.0973.47758z" fill="url(#a)" fill-rule="evenodd"/><g fill="#505f79"><path d="m65.2359 2.61792v6.05296h-7.2132v23.08192h-6.9457v-23.0567h-7.2081v-6.05296z"/><path d="m74.0832 31.7781h-6.4262v-22.69861h6.4262v4.36821c1.2157-3.0668 3.1677-4.88271 6.6431-4.66077v6.70367c-4.5145-.3581-6.6431.7516-6.6431 4.3934z"/><path d="m115.839 31.9547c-4.212 0-6.865-2.0429-6.865-6.7895v-24.857461h6.471v23.969761c0 1.372.913 1.8613 2.018 1.8613.318.0058.637-.0076.953-.0404v5.5889c-.842.211-1.71.301-2.577.2674z"/><path d="m129.337 31.9546c-4.212 0-6.86-2.0428-6.86-6.7894v-24.857461h6.471v23.969761c0 1.372.913 1.8613 2.043 1.8613.318.0056.637-.0079.954-.0404v5.5889c-.852.2136-1.731.3037-2.608.2673z"/><path d="m135.042 20.4136c0-7.0113 4.035-11.80325 10.986-11.80325s10.9 4.78685 10.9 11.80325-3.995 11.8941-10.9 11.8941c-6.906 0-10.986-4.9231-10.986-11.8941zm6.295 0c0 3.42 1.432 6.1287 4.691 6.1287 3.258 0 4.605-2.7087 4.605-6.1287 0-3.4199-1.392-6.0529-4.605-6.0529s-4.691 2.633-4.691 6.0529z"/><path d="m89.4024 22.4767c1.8006.2023 3.6105.31 5.4224.3228 4.918 0 9.0792-1.3266 9.0792-6.0883 0-4.6254-4.2721-8.10085-9.4121-8.10085-6.9206 0-11.3493 5.01385-11.3493 12.02525 0 7.2787 3.8234 11.6015 12.464 11.6015 2.5621.0196 5.1054-.4371 7.5004-1.3468v-5.4376c-2.214.7112-4.716 1.4124-7.2784 1.4124-3.4452 0-5.8361-1.1299-6.4262-4.3884zm4.9583-8.913c1.821 0 3.2838 1.2308 3.2838 2.9256 0 2.174-2.3002 2.855-4.9382 2.855-1.1249-.0052-2.2479-.0946-3.3594-.2674.0816-1.0597.384-2.0906.8877-3.0264.4045-.744 1.0001-1.3666 1.7254-1.8037s1.554-.6729 2.4007-.6831z"/></g></svg>