<svg fill="none" height="33" viewBox="0 0 157 33" width="157" xmlns="http://www.w3.org/2000/svg" xmlns:xlink="http://www.w3.org/1999/xlink"><linearGradient id="a" gradientUnits="userSpaceOnUse" x1="15.7277" x2="15.7277" y1="31.9655" y2=".510087"><stop offset="0" stop-color="#fff" stop-opacity=".4"/><stop offset=".15" stop-color="#fff" stop-opacity=".65"/><stop offset=".3" stop-color="#fff" stop-opacity=".78"/><stop offset=".46" stop-color="#fff" stop-opacity=".88"/><stop offset=".62" stop-color="#fff" stop-opacity=".95"/><stop offset=".8" stop-color="#fff" stop-opacity=".99"/><stop offset="1" stop-color="#fff"/></linearGradient><path clip-rule="evenodd" d="m27.7189.5h-23.98237c-.99099 0-1.94139.393668-2.64213 1.0944-.700731.70074-1.0944 1.65114-1.0944 2.64213v23.99747c0 .991.393669 1.9414 1.0944 2.6421.70074.7008 1.65114 1.0944 2.64213 1.0944h23.98237c.991 0 1.9414-.3936 2.6421-1.0944.7007-.7007 1.0944-1.6511 1.0944-2.6421v-23.98739c.0013-.49153-.0943-.9785-.2815-1.433s-.4622-.86761-.8093-1.21564c-.3471-.34804-.7595-.624174-1.2135-.812582s-.9407-.28539-1.4322-.285388zm-14.1696 22.6915c0 .3294-.1305.6455-.363.8789s-.548.3652-.8774.3666h-5.25942c-.32992-.0014-.64595-.133-.87924-.3663s-.36494-.5493-.36627-.8792v-15.63193c.00133-.32993.13298-.64595.36627-.87925.23329-.23329.54932-.36494.87924-.36626h5.25942c.3294.00133.6449.13314.8774.36658.2325.23343.363.54947.363.87893zm12.1021-7.1655c-.0013.3299-.1329.646-.3662.8792-.2333.2333-.5494.365-.8793.3663h-5.2594c-.3294-.0013-.6449-.1331-.8774-.3666-.2325-.2334-.363-.5494-.363-.8789v-8.46643c0-.32946.1305-.6455.363-.87893.2325-.23344.548-.36525.8774-.36658h5.2594c.3299.00132.646.13297.8793.36626.2333.2333.3649.54932.3662.87925z" fill="url(#a)" fill-rule="evenodd"/><g fill="#fff"><path d="m65.2001 2.81454v6.08132h-7.2108v23.06964h-6.9487v-23.06964h-7.2007v-6.08132z"/><path d="m74.0447 31.9655h-6.4242v-22.69145h6.4242v4.34665c1.2153-3.0608 3.1667-4.87612 6.641-4.65425v6.71665c-4.513-.353-6.641.7564-6.641 4.3921z"/><path d="m115.787 32.147c-4.211 0-6.863-2.0422-6.863-6.7923v-24.8547h6.47v23.9672c0 1.3766.912 1.8658 2.017 1.8658.318.0066.636-.0086.953-.0454v5.5922c-.843.2083-1.71.2982-2.577.2672z"/><path d="m129.286 32.147c-4.211 0-6.858-2.0422-6.858-6.7923v-24.8547h6.47v23.9672c0 1.3766.912 1.8658 2.017 1.8658.32.0065.64-.0087.958-.0454v5.5922c-.846.209-1.717.299-2.587.2672z"/><path d="m134.984 20.6097c0-7.0092 4.034-11.80462 10.983-11.80462 6.948 0 10.896 4.80552 10.896 11.80462 0 6.999-3.993 11.8903-10.896 11.8903-6.904 0-10.983-4.9266-10.983-11.8903zm6.293 0c0 3.4188 1.432 6.1216 4.69 6.1216 3.257 0 4.603-2.7028 4.603-6.1216 0-3.4189-1.391-6.0511-4.603-6.0511-3.213 0-4.665 2.6322-4.665 6.0511z"/><path d="m89.364 22.6872c1.8003.1978 3.6096.3038 5.4207.3177 4.9165 0 9.0763-1.3212 9.0763-6.0813 0-4.624-4.2707-8.10339-9.4091-8.10339-6.9184 0-11.3457 5.04259-11.3457 12.02649 0 7.2764 3.8222 11.5978 12.4601 11.5978 2.5642.0263 5.1107-.4269 7.5087-1.3362v-5.4611c-2.214.7059-4.7151 1.4119-7.2767 1.4119-3.4592 0-5.8393-1.1295-6.4343-4.3719zm4.9568-8.9152c1.8204 0 3.2827 1.2354 3.2827 2.9247 0 2.1783-2.2994 2.854-4.9366 2.854-1.1246-.0051-2.2472-.0945-3.3584-.2672.0824-1.0592.3846-2.0897.8875-3.0255.4024-.7455.9962-1.3702 1.7204-1.8098.7241-.4396 1.5523-.6783 2.3994-.6913z"/></g></svg>