<svg fill="none" height="33" viewBox="0 0 158 33" width="158" xmlns="http://www.w3.org/2000/svg" xmlns:xlink="http://www.w3.org/1999/xlink"><linearGradient id="a" gradientUnits="userSpaceOnUse" x1="16.7527" x2="16.7527" y1="31.7731" y2=".307739"><stop offset="0" stop-color="#0052cc"/><stop offset="1" stop-color="#2684ff"/></linearGradient><path clip-rule="evenodd" d="m28.7426.307739h-24.00507c-.99176-.000001-1.94298.393631-2.64474 1.094441s-1.096672 1.6515-1.098008 2.64326v23.96976c-.001993.4928.093348.9811.280548 1.4369.18719.4559.46257.8702.81031 1.2194.34775.3491.76102.6262 1.2161.8152.45508.1891.94301.2864 1.43579.2864h24.00507c.4923-.0007.9797-.0985 1.4342-.2878.4545-.1894.8672-.4665 1.2144-.8156s.6221-.7632.809-1.2188c.1869-.4555.2821-.9434.2801-1.4357v-23.96976c-.0014-.99089-.3956-1.94081-1.0962-2.64148-.7007-.700666-1.6506-1.094886-2.6415-1.096221zm-14.169 22.663261c-.0007.1647-.0338.3277-.0976.4795-.0638.1519-.157.2897-.2741.4054-.1172.1158-.2561.2073-.4087.2692-.1526.062-.3159.0932-.4806.0918h-5.24594c-.32956-.0013-.64516-.1331-.87773-.3667-.23256-.2335-.36313-.5496-.36313-.8792v-15.61156c0-.32956.13057-.6457.36313-.87921.23257-.2335.54817-.36535.87773-.36669h5.24594c.33.00133.6461.13302.8795.36638.2333.23337.365.5495.3664.87952zm12.1059-7.1677c0 .1649-.0327.3282-.0962.4803-.0636.1522-.1567.2902-.274.4061s-.2565.2074-.4094.2691-.3165.0924-.4814.0904h-5.2459c-.33-.0013-.6462-.133-.8795-.3664-.2334-.2333-.3651-.5494-.3664-.8795v-8.44386c.0013-.33002.133-.64615.3664-.87952.2333-.23336.5495-.36505.8795-.36638h5.2459c.3295.00134.6452.13319.8777.36669.2326.23351.3631.54965.3631.87921z" fill="url(#a)" fill-rule="evenodd"/><g fill="#293856"><path d="m66.2356 2.61292v6.08322h-7.2081v23.07696h-6.9508v-23.07696h-7.208v-6.08322z"/><path d="m75.083 31.7731h-6.4263v-22.69862h6.4263v4.34802c1.2206-3.0618 3.1727-4.8827 6.6481-4.66075v6.72385c-4.5397-.3531-6.6481.7566-6.6481 4.3934z"/><path d="m116.838 31.9496c-4.211 0-6.86-2.0177-6.86-6.7894v-24.852461h6.472v23.964661c0 1.3771.908 1.8664 2.018 1.8664.32.0064.64-.0087.958-.0454v5.5939c-.846.2062-1.717.2945-2.588.2623z"/><path d="m130.337 31.9496c-4.212 0-6.866-2.0177-6.866-6.7894v-24.852461h6.472v23.964661c0 1.3771.913 1.8664 2.043 1.8664.318.0066.637-.0086.953-.0454v5.5939c-.851.2082-1.727.2965-2.602.2623z"/><path d="m136.041 20.4137c0-7.0114 4.036-11.80835 10.987-11.80835 6.95 0 10.9 4.78185 10.9 11.80835 0 7.0264-3.995 11.894-10.9 11.894-6.906 0-10.987-4.9281-10.987-11.894zm6.301 0c0 3.4148 1.432 6.1235 4.686 6.1235 3.253 0 4.605-2.7087 4.605-6.1235 0-3.4149-1.387-6.053-4.605-6.053-3.219 0-4.686 2.633-4.686 6.053z"/><path d="m90.4071 22.4666c1.7992.1977 3.6073.3037 5.4174.3178 4.9235 0 9.0795-1.3216 9.0795-6.0883 0-4.6255-4.272-8.10089-9.4124-8.10089-6.9206 0-11.3544 5.01889-11.3544 12.03029 0 7.2787 3.8235 11.6015 12.4641 11.6015 2.5633.0209 5.1087-.4341 7.5057-1.3417v-5.4376c-2.219.7112-4.7163 1.4174-7.2787 1.4174-3.4401 0-5.8361-1.1299-6.4212-4.3985zm4.9533-8.918c1.8209 0 3.2837 1.2358 3.2837 2.9256 0 2.174-2.295 2.8549-4.9382 2.8549-1.1249-.0051-2.2478-.0945-3.3594-.2673.084-1.0599.3881-2.0907.8929-3.0265.4049-.7417 1.0002-1.362 1.7245-1.7973s1.5515-.6698 2.3965-.6794z"/></g></svg>